<svg xmlns="http://www.w3.org/2000/svg" width="1200" height="800" viewBox="0 0 1200 800" fill="none">
  <defs>
    <linearGradient id="g1" x1="0" y1="0" x2="1" y2="1">
      <stop offset="0" stop-color="#1D4ED8"/>
      <stop offset="1" stop-color="#22C55E"/>
    </linearGradient>
    <linearGradient id="g2" x1="0" y1="0" x2="1" y2="0">
      <stop offset="0" stop-color="#0F172A"/>
      <stop offset="1" stop-color="#1E293B"/>
    </linearGradient>
  </defs>
  <rect width="1200" height="800" rx="36" fill="url(#g2)"/>
  <circle cx="210" cy="130" r="120" fill="#22C55E" fill-opacity="0.25"/>
  <circle cx="950" cy="680" r="170" fill="#2563EB" fill-opacity="0.28"/>
  <rect x="180" y="160" width="840" height="480" rx="28" fill="#0B1224" stroke="#334155" stroke-width="3"/>
  <rect x="220" y="210" width="300" height="36" rx="18" fill="url(#g1)"/>
  <rect x="220" y="270" width="640" height="26" rx="13" fill="#1E293B"/>
  <rect x="220" y="316" width="580" height="26" rx="13" fill="#1E293B"/>
  <rect x="220" y="360" width="460" height="26" rx="13" fill="#1E293B"/>
  <rect x="220" y="430" width="190" height="52" rx="14" fill="#2563EB"/>
  <rect x="430" y="430" width="220" height="52" rx="14" fill="#1E293B" stroke="#334155"/>
  <circle cx="870" cy="430" r="94" fill="#22C55E"/>
  <path d="M851 430c0 9 2 18 6 26l-10 36 37-10c8 4 17 6 26 6 33 0 59-26 59-58s-26-58-59-58-59 26-59 58z" fill="#0F172A"/>
  <path d="M857 430c0 29 23 52 52 52 8 0 15-2 22-5l30 8-8-29c4-7 6-15 6-23 0-29-23-52-52-52s-52 23-52 52z" fill="#22C55E"/>
  <text x="220" y="550" fill="#93C5FD" font-family="Arial, sans-serif" font-size="34" font-weight="700">Prueba de 7 días • Bot de WhatsApp IA</text>
</svg>
